I Want Candy (2007)

Joe and Baggy are two misfit English film school students whose first movie goes awry. Desperate to finance their flick, they turn to a porn producer who agrees to give them the money needed in exchanges for the guys to cast a semi-retired adult film star named Candy (Carmen Electra). Though Candy agrees to the deal, but Joe and Baggy's efforts to make their own movie morphs into a raunchy show which they use Joe's suburban parents house as their set.
 
RIPPER                           : fasamoo
Format                           : AVI
Format/Info                      : Audio Video Interleave
File size                        : 700 MiB
Duration                         : 1h 26mn
Overall bit rate                 : 1 128 Kbps
Writing application              : VirtualDubMod 1.5.4.1 (build 2178/release)
Writing library                  : VirtualDubMod build 2178/release
Language                         : English
Subtitles                        : None
Genre                            : Comedy

Video
ID                               : 0
Format                           : MPEG-4 Visual
Format profile                   : Advanced Simple@L5
Format settings, BVOP            : No
Format settings, QPel            : No
Format settings, GMC             : No warppoints
Format settings, Matrix          : Custom
Codec ID                         : XVID
Codec ID/Hint                    : XviD
Duration                         : 1h 26mn
Bit rate                         : 1 005 Kbps
Width                            : 608 pixels
Height                           : 352 pixels
Display aspect ratio             : 16:9
Frame rate                       : 23.976 fps
Color space                      : YUV
Chroma subsampling               : 4:2:0
Bit depth                        : 8 bits
Scan type                        : Progressive
Bits/(Pixel*Frame)               : 0.196
Stream size                      : 624 MiB (89%)
Writing library                  : XviD 1.2.1 (UTC 2008-12-04)

Audio
ID                               : 1
Format                           : MPEG Audio
Format version                   : Version 1
Format profile                   : Layer 3
Mode                             : Joint stereo
Mode extension                   : MS Stereo
Codec ID                         : 55
Codec ID/Hint                    : MP3
Duration                         : 1h 26mn
Bit rate mode                    : Variable
Bit rate                         : 110 Kbps
Nominal bit rate                 : 128 Kbps
Channel(s)                       : 2 channels
Sampling rate                    : 48.0 KHz
Stream size                      : 68.4 MiB (10%)
Alignment                        : Aligned on interleaves
Interleave, duration             : 24 ms (0.58 video frame)
Interleave, preload duration     : 473 ms
Writing library                  : LAME3.98r
Encoding settings                : -m j -V 4 -q 2 -lowpass 17 --abr 128
 
http://leetleech.org/images/89826289241708606197.png 
http://leetleech.org/images/73004963912467418864.png 
http://leetleech.org/images/10535541335562544449.png 
http://leetleech.org/images/81417964897971235199.png 
http://leetleech.org/images/07469961126214830296.png 
http://leetleech.org/images/08108916626139147134.png
 
http://www.youtube.com/watch?v=Pek3H1DyBEI
 
http://www.imdb.com/title/tt0791309/
 
http://leetleech.org/images/97913465899887526311.png